Coordinates
version=1
nRows=10
nColumns=22
inDegrees=yes

Units are S.I. units (second, meters, Newtons, ...)
If the header above contains a line with 'inDegrees', this indicates whether rotational values are in degrees (yes) or radians (no).

endheader
time	pelvis_tilt	pelvis_list	pelvis_rotation	pelvis_tx	pelvis_ty	pelvis_tz	hip_flexion_r	hip_adduction_r	hip_rotation_r	knee_angle_r	ankle_angle_r	subtalar_angle_r	hip_flexion_l	hip_adduction_l	hip_rotation_l	knee_angle_l	ankle_angle_l	subtalar_angle_l	lumbar_extension	lumbar_bending	lumbar_rotation
      1.26000000	    -10.91818970	      2.09266632	     -4.17991267	     -0.74581087	      0.94021029	     -0.35168631	     45.44660787	     -0.87294339	    -12.22977003	    -24.86332476	     13.55200260	      0.55392038	      4.51764347	      6.18251270	     -0.98634586	    -19.71507553	     29.70178758	     -6.79340022	     -4.61818667	     -0.35873779	     -0.21987790
      1.27000000	    -10.93847269	      2.12169759	     -4.11932307	     -0.73852904	      0.93894765	     -0.35056734	     45.43163198	     -0.88415988	    -12.27382079	    -24.83210159	     13.36000067	      0.09996384	      4.16092371	      6.17229148	     -0.95533231	    -19.92244833	     29.73991932	     -6.65929655	     -4.53994572	     -0.29828213	     -0.31693146
      1.28000000	    -10.97438482	      2.15081332	     -4.05860482	     -0.73105051	      0.93772359	     -0.34939548	     45.40474651	     -0.88974063	    -12.26505571	    -24.89826987	     13.08125665	     -0.41613660	      3.82320174	      6.15269400	     -0.93660846	    -20.15660006	     29.75107446	     -6.51327453	     -4.43433697	     -0.23734792	     -0.40291945
      1.29000000	    -11.02821876	      2.16305882	     -3.99588618	     -0.72336998	      0.93655604	     -0.34819444	     45.38096993	     -0.88358288	    -12.22914418	    -25.09279822	     12.66099581	     -0.96334576	      3.49959157	      6.11054003	     -0.88891323	    -20.40704875	     29.71388470	     -6.35311020	     -4.30062965	     -0.14743375	     -0.47961448
      1.30000000	    -11.10168836	      2.14994006	     -3.93247413	     -0.71546822	      0.93546605	     -0.34695461	     45.35840380	     -0.85797365	    -12.19003479	    -25.40498279	     12.08887000	     -1.55486131	      3.19069129	      6.03515979	     -0.81749142	    -20.67258849	     29.62397922	     -6.16542191	     -4.13354466	     -0.01931580	     -0.54801986
      1.31000000	    -11.18248481	      2.11348937	     -3.87081850	     -0.70735115	      0.93449107	     -0.34566658	     45.33097116	     -0.81427960	    -12.15359135	    -25.83155088	     11.36655723	     -2.17076537	      2.88647791	      5.92892729	     -0.72452609	    -20.95561022	     29.48419661	     -5.94053602	     -3.94989246	      0.14350144	     -0.62430100
      1.32000000	    -11.26923749	      2.02841185	     -3.81546970	     -0.69900338	      0.93365803	     -0.34432575	     45.29636982	     -0.73380719	    -12.16212264	    -26.35628289	     10.52017857	     -2.76865240	      2.58699116	      5.76736067	     -0.59409431	    -21.26581827	     29.28542227	     -5.67638113	     -3.74994876	      0.37079304	     -0.67102910
      1.33000000	    -11.34517609	      1.90482109	     -3.78132953	     -0.69043142	      0.93301512	     -0.34289107	     45.24555219	     -0.61163749	    -12.18647698	    -26.96522903	      9.59421470	     -3.36358855	      2.27029171	      5.55991341	     -0.45079847	    -21.58690587	     29.02692161	     -5.35579393	     -3.55615553	      0.64775664	     -0.71280783
      1.34000000	    -11.39456924	      1.74663890	     -3.78689649	     -0.68165164	      0.93259905	     -0.34134116	     45.16986744	     -0.43873564	    -12.20519058	    -27.64452284	      8.66936050	     -3.97713068	      1.92608655	      5.31615332	     -0.28821913	    -21.92975691	     28.69045074	     -4.95394314	     -3.39073542	      0.96605349	     -0.70888107
      1.35000000	    -11.43516559	      1.51291734	     -3.83381165	     -0.67265472	      0.93240152	     -0.33966404	     45.07243638	     -0.17797056	    -12.24629332	    -28.35703787	      7.82670093	     -4.51948377	      1.57943724	      4.98574447	     -0.14257827	    -22.30970020	     28.31871712	     -4.51629036	     -3.23183769	      1.37955174	     -0.66809437
